# xmcd CD database file generated by OrangeCD 4.3
#
# Track frame offsets:
#	150
#	13782
#	27360
#	38287
#	50987
#	80577
#	95615
#	108912
#	123962
#	137520
#	151927
#	170832
#	187840
#	200682
#	214752
#	226995
#
# Disc length: 3298 seconds
#
# Revision: 0
# Processed by: cddbd v1.4PL0 Copyright (c) Steve Scherf et al.
# Submitted via: OrangeCD 4.3
#
DISCID=d20ce010
DTITLE=John Rowles - The John Rowles Hits Collection
DYEAR=1996
DGENRE=Easy Listening
TTITLE0=Cheryl Moana Marie
TTITLE1=Hush, Not A Word To Mary
TTITLE2=Another Tear Falls
TTITLE3=If I Only Had Time
TTITLE4=Send In The Clowns
TTITLE5=Luckenbach Texas
TTITLE6=The Pain Goes On Forever
TTITLE7=Fools Rush In
TTITLE8=Tania
TTITLE9=If I Ever Had To Say Goodbye
TTITLE10=Feelings
TTITLE11=Island In The Sun
TTITLE12=Come On Back And Get It
TTITLE13=Time For Love
TTITLE14=What Greater Love
TTITLE15=This Is My Life
EXTD=
EXTT0=
EXTT1=
EXTT2=
EXTT3=
EXTT4=
EXTT5=
EXTT6=
EXTT7=
EXTT8=
EXTT9=
EXTT10=
EXTT11=
EXTT12=
EXTT13=
EXTT14=
EXTT15=
PLAYORDER=
